<svg width="83" height="84" viewBox="0 0 83 84" fill="none" xmlns="http://www.w3.org/2000/svg">
<g clip-path="url(#clip0_8_54060)">
<path d="M41.1291 0.885742C18.4452 0.885742 0.0546875 19.2745 0.0546875 41.9592C0.0546875 64.6436 18.4452 83.0327 41.1291 83.0327C63.8146 83.0327 82.2033 64.6436 82.2033 41.9592C82.2034 19.2745 63.8147 0.885742 41.1291 0.885742ZM41.1291 80.9789C19.5782 80.9789 2.11019 63.5094 2.11019 41.9592C2.11019 20.4093 19.5782 2.9389 41.1291 2.9389C62.6799 2.9389 80.1494 20.4092 80.1494 41.9592C80.1494 63.5094 62.6799 80.9789 41.1291 80.9789Z" fill="url(#paint0_linear_8_54060)"/>
<path d="M80.4439 41.9593C80.4439 63.6702 62.8405 81.273 41.1293 81.273C19.418 81.273 1.81641 63.6702 1.81641 41.9593C1.81641 20.2471 19.418 2.64551 41.1293 2.64551C62.8405 2.64551 80.4439 20.2471 80.4439 41.9593Z" fill="#333333"/>
<path d="M80.1505 41.9598C80.1505 63.51 62.681 80.9794 41.1303 80.9794C19.5793 80.9794 2.11133 63.51 2.11133 41.9598C2.11133 20.4098 19.5793 2.93945 41.1303 2.93945C62.681 2.93945 80.1505 20.4098 80.1505 41.9598Z" fill="url(#paint1_radial_8_54060)"/>
<path d="M67.289 41.9599C67.289 56.4072 55.5767 68.1189 41.1291 68.1189C26.681 68.1189 14.9688 56.4072 14.9688 41.9599C14.9688 27.5118 26.681 15.7998 41.1291 15.7998C55.5767 15.7998 67.289 27.5119 67.289 41.9599Z" fill="url(#paint2_linear_8_54060)"/>
<path d="M42.1781 15.0923L44.8956 7.88998V15.0923H46.9595V4.77734H43.8579L41.0366 12.1627H41.0635L38.2424 4.77734H35.1406V15.0923H37.2046V7.88998L39.922 15.0923H42.1781Z" fill="black"/>
<path d="M70.5009 19.7183L66.9746 24.8599L72.5133 22.1358L74.0156 23.9374L65.2985 28.3143L63.5371 26.1819L66.9162 21.0871L66.8961 21.062L61.2757 23.4677L59.4941 21.3495L65.3719 13.5664L66.8745 15.3689L63.194 20.3251L68.8899 17.7846L70.5009 19.7183Z" fill="black"/>
<path d="M22.8603 17.7472C22.0296 16.9408 20.7478 16.6977 19.5427 17.4447C19.7735 16.848 19.6798 16.2406 19.5578 15.9038C19.038 14.9587 18.8559 14.8392 18.4315 14.4807C17.046 13.3199 15.5885 14.3111 14.5474 15.5519L9.51367 21.5509L17.427 28.1899L22.7349 21.8652C23.9482 20.4196 24.1354 18.9865 22.8603 17.7472ZM12.6236 20.6402L15.6472 17.037C15.9981 16.62 16.7903 16.6367 17.2983 17.0646C17.8581 17.5342 17.8598 18.1993 17.4838 18.6481L14.4939 22.2097L12.6236 20.6402ZM20.9651 21.2393L17.8131 24.9956L15.8394 23.3368L19.0149 19.5515C19.3742 19.1235 20.1747 18.9991 20.7145 19.4519C21.3227 19.9634 21.3828 20.7414 20.9651 21.2393Z" fill="#333333"/>
<path d="M42.2 14.6939L44.9173 7.4917V14.6939H46.9814V4.37891H43.8794L41.0584 11.7641H41.0852L38.2641 4.37891H35.1621V14.6939H37.2262V7.4917L39.9438 14.6939H42.2Z" fill="url(#paint3_radial_8_54060)"/>
<path d="M70.5227 19.0259L66.998 24.1676L72.5365 21.4426L74.0374 23.2451L65.3215 27.622L63.5602 25.4887L66.9394 20.3947L66.9196 20.3688L61.2972 22.7755L59.5176 20.6563L65.3954 12.874L66.8977 14.6758L63.2177 19.6319L68.9115 17.0924L70.5227 19.0259Z" fill="url(#paint4_radial_8_54060)"/>
<path d="M22.4913 17.5444C21.6622 16.738 20.3787 16.4947 19.1755 17.2411C19.4044 16.6443 19.3109 16.0369 19.189 15.7017C18.6691 14.755 18.4887 14.6371 18.0607 14.2779C16.6753 13.1164 15.2196 14.1081 14.1801 15.3501L9.14453 21.3481L17.058 27.9872L22.3659 21.6615C23.5776 20.2159 23.7664 18.7837 22.4913 17.5444ZM12.2549 20.4373L15.2781 16.8349C15.6276 16.4172 16.4196 16.4339 16.9294 16.8608C17.4892 17.3313 17.4909 17.9972 17.1131 18.4442L14.1251 22.0065L12.2549 20.4373ZM20.5978 21.0364L17.4458 24.7926L15.4687 23.1338L18.6459 19.3476C19.0051 18.9206 19.804 18.7961 20.3439 19.2491C20.9554 19.7612 21.0156 20.5376 20.5978 21.0364Z" fill="url(#paint5_radial_8_54060)"/>
<path d="M15.8398 41.9601C15.8398 27.9927 27.1627 16.6699 41.1293 16.6699C55.0974 16.6699 66.4187 27.9927 66.4187 41.9601C66.4187 55.9269 55.0974 67.2494 41.1293 67.2494C27.1626 67.2494 15.8398 55.9269 15.8398 41.9601Z" fill="url(#paint6_radial_8_54060)"/>
<path d="M16.5664 41.9598C16.5664 28.3943 27.5633 17.3965 41.1289 17.3965C54.6945 17.3965 65.6929 28.3942 65.6929 41.9598C65.6929 55.5255 54.6944 66.5232 41.1289 66.5232C27.5634 66.5232 16.5664 55.5255 16.5664 41.9598Z" fill="url(#paint7_radial_8_54060)"/>
<path d="M16.5293 41.9602H41.1302V17.3594C27.5428 17.3594 16.5293 28.373 16.5293 41.9602Z" fill="url(#paint8_radial_8_54060)"/>
<path d="M41.1309 41.96V66.5611C54.7181 66.5611 65.7318 55.5455 65.7318 41.96H41.1309Z" fill="url(#paint9_radial_8_54060)"/>
<path d="M65.9336 41.5228H41.5652V17.1543H40.6927V41.5228H16.3242V42.3953H40.6927V66.7645H41.5652V42.3953H65.9336V41.5228Z" fill="url(#paint10_radial_8_54060)"/>
<path d="M41.5665 17.8442C54.5438 18.075 65.0159 28.5461 65.2481 41.5225H65.6825C65.4505 28.3054 54.7844 17.6379 41.5664 17.4072V17.8442H41.5665Z" fill="url(#paint11_linear_8_54060)"/>
<path d="M16.9694 41.5191C17.2 28.525 27.6871 18.0388 40.6812 17.8073V17.3711C27.4449 17.6025 16.7655 28.2843 16.5332 41.519H16.9694V41.5191Z" fill="#C2D7E8"/>
<path d="M40.6941 66.0752C27.7169 65.8447 17.2449 55.3727 17.0142 42.3955H16.5781C16.8104 55.6133 27.4763 66.2812 40.6942 66.5117V66.0752H40.6941Z" fill="url(#paint12_linear_8_54060)"/>
<path d="M65.248 42.3945C65.0158 55.3717 54.5437 65.8437 41.5664 66.0742V66.5107C54.7844 66.2802 65.4518 55.6124 65.6825 42.3945H65.248Z" fill="#12404F"/>
<path d="M40.2264 17.3711V41.0436H16.5547V41.5107H40.2264H40.6925V41.0436V17.3711H40.2264Z" fill="url(#paint13_linear_8_54060)"/>
<path d="M40.1879 66.2824V42.8948H16.752V42.4336H40.1879H40.6491V42.8948V66.2824H40.1879Z" fill="url(#paint14_linear_8_54060)"/>
<path d="M42.0651 66.2824V42.8948H65.4526V42.4336H42.0651H41.6055V42.8948V66.2824H42.0651Z" fill="url(#paint15_linear_8_54060)"/>
<path d="M42.0651 17.5811V40.9685H65.4526V41.429H42.0651H41.6055V40.9685V17.5811H42.0651Z" fill="url(#paint16_linear_8_54060)"/>
</g>
<defs>
<linearGradient id="paint0_linear_8_54060" x1="-5.958" y1="-3.5428" x2="81.1931" y2="80.6739" gradientUnits="userSpaceOnUse">
<stop stop-color="#DFF4FF"/>
<stop offset="0.0984" stop-color="#D6EAF5"/>
<stop offset="0.2678" stop-color="#BFD0D9"/>
<stop offset="0.4879" stop-color="#98A5AC"/>
<stop offset="0.7469" stop-color="#646B6E"/>
<stop offset="1" stop-color="#2B2B2B"/>
</linearGradient>
<radialGradient id="paint1_radial_8_54060" cx="0" cy="0" r="1" gradientUnits="userSpaceOnUse" gradientTransform="translate(-0.456123 3.60282) scale(58.3554 58.3554)">
<stop stop-color="white"/>
<stop offset="0.3064" stop-color="#A8A8A8"/>
<stop offset="0.6461" stop-color="#4F4F4F"/>
<stop offset="0.8853" stop-color="#161616"/>
<stop offset="1"/>
</radialGradient>
<linearGradient id="paint2_linear_8_54060" x1="71.1187" y1="70.9396" x2="15.6126" y2="17.3023" gradientUnits="userSpaceOnUse">
<stop stop-color="#DFF4FF"/>
<stop offset="0.0855" stop-color="#D6EAF5"/>
<stop offset="0.2327" stop-color="#BED0D9"/>
<stop offset="0.4239" stop-color="#96A4AC"/>
<stop offset="0.6516" stop-color="#5F686D"/>
<stop offset="0.9075" stop-color="#1A1D1E"/>
<stop offset="1"/>
</linearGradient>
<radialGradient id="paint3_radial_8_54060" cx="0" cy="0" r="1" gradientUnits="userSpaceOnUse" gradientTransform="translate(-10.9365 -2.34028) scale(140.22 140.22)">
<stop stop-color="white"/>
<stop offset="0.3102" stop-color="#FDFDFD"/>
<stop offset="0.4505" stop-color="#F6F6F6"/>
<stop offset="0.5567" stop-color="#E9E9E9"/>
<stop offset="0.6456" stop-color="#D7D7D7"/>
<stop offset="0.7238" stop-color="#BFBFBF"/>
<stop offset="0.7944" stop-color="#A2A2A2"/>
<stop offset="0.8593" stop-color="#808080"/>
<stop offset="0.9199" stop-color="#575757"/>
<stop offset="0.9746" stop-color="#2B2B2B"/>
<stop offset="1" stop-color="#141414"/>
</radialGradient>
<radialGradient id="paint4_radial_8_54060" cx="0" cy="0" r="1" gradientUnits="userSpaceOnUse" gradientTransform="translate(-10.9427 -2.33999) scale(140.231 140.231)">
<stop stop-color="white"/>
<stop offset="0.3102" stop-color="#FDFDFD"/>
<stop offset="0.4505" stop-color="#F6F6F6"/>
<stop offset="0.5567" stop-color="#E9E9E9"/>
<stop offset="0.6456" stop-color="#D7D7D7"/>
<stop offset="0.7238" stop-color="#BFBFBF"/>
<stop offset="0.7944" stop-color="#A2A2A2"/>
<stop offset="0.8593" stop-color="#808080"/>
<stop offset="0.9199" stop-color="#575757"/>
<stop offset="0.9746" stop-color="#2B2B2B"/>
<stop offset="1" stop-color="#141414"/>
</radialGradient>
<radialGradient id="paint5_radial_8_54060" cx="0" cy="0" r="1" gradientUnits="userSpaceOnUse" gradientTransform="translate(-10.9516 -2.38122) scale(140.339 140.339)">
<stop stop-color="white"/>
<stop offset="0.3102" stop-color="#FDFDFD"/>
<stop offset="0.4505" stop-color="#F6F6F6"/>
<stop offset="0.5567" stop-color="#E9E9E9"/>
<stop offset="0.6456" stop-color="#D7D7D7"/>
<stop offset="0.7238" stop-color="#BFBFBF"/>
<stop offset="0.7944" stop-color="#A2A2A2"/>
<stop offset="0.8593" stop-color="#808080"/>
<stop offset="0.9199" stop-color="#575757"/>
<stop offset="0.9746" stop-color="#2B2B2B"/>
<stop offset="1" stop-color="#141414"/>
</radialGradient>
<radialGradient id="paint6_radial_8_54060" cx="0" cy="0" r="1" gradientUnits="userSpaceOnUse" gradientTransform="translate(14.1758 17.0998) scale(37.8215 37.8215)">
<stop stop-color="#E6E6E6"/>
<stop offset="0.1045" stop-color="#D6D6D6"/>
<stop offset="0.3074" stop-color="#ADADAD"/>
<stop offset="0.5884" stop-color="#6C6C6C"/>
<stop offset="0.9335" stop-color="#121212"/>
<stop offset="1"/>
</radialGradient>
<radialGradient id="paint7_radial_8_54060" cx="0" cy="0" r="1" gradientUnits="userSpaceOnUse" gradientTransform="translate(24.5199 22.1864) scale(55.0032 55.0032)">
<stop stop-color="white"/>
<stop offset="0.3435" stop-color="#FDFDFD"/>
<stop offset="0.4814" stop-color="#F6F6F6"/>
<stop offset="0.5824" stop-color="#EAEAEA"/>
<stop offset="0.6654" stop-color="#D8D8D8"/>
<stop offset="0.7373" stop-color="#C2C2C2"/>
<stop offset="0.8016" stop-color="#A6A6A6"/>
<stop offset="0.8602" stop-color="#848484"/>
<stop offset="0.9126" stop-color="#5F5F5F"/>
<stop offset="0.9494" stop-color="#404040"/>
<stop offset="0.9566" stop-color="#404040"/>
<stop offset="1"/>
</radialGradient>
<radialGradient id="paint8_radial_8_54060" cx="0" cy="0" r="1" gradientUnits="userSpaceOnUse" gradientTransform="translate(8.37164 1.33694) scale(97.4114)">
<stop offset="0.1685" stop-color="white"/>
<stop offset="0.1957" stop-color="#E0EFF7"/>
<stop offset="0.2406" stop-color="#B2D9EC"/>
<stop offset="0.2872" stop-color="#8BC5E2"/>
<stop offset="0.335" stop-color="#6BB5DA"/>
<stop offset="0.3844" stop-color="#52A9D4"/>
<stop offset="0.4359" stop-color="#41A0CF"/>
<stop offset="0.4911" stop-color="#369BCD"/>
<stop offset="0.5562" stop-color="#3399CC"/>
<stop offset="0.606" stop-color="#3396C8"/>
<stop offset="0.6553" stop-color="#328EBC"/>
<stop offset="0.7045" stop-color="#3180A8"/>
<stop offset="0.7536" stop-color="#2F6D8C"/>
<stop offset="0.8027" stop-color="#2D5468"/>
<stop offset="0.8512" stop-color="#2A373D"/>
<stop offset="0.8708" stop-color="#292929"/>
</radialGradient>
<radialGradient id="paint9_radial_8_54060" cx="0" cy="0" r="1" gradientUnits="userSpaceOnUse" gradientTransform="translate(8.37229 1.33602) scale(97.4095 97.4095)">
<stop offset="0.1685" stop-color="white"/>
<stop offset="0.1957" stop-color="#E0EFF7"/>
<stop offset="0.2406" stop-color="#B2D9EC"/>
<stop offset="0.2872" stop-color="#8BC5E2"/>
<stop offset="0.335" stop-color="#6BB5DA"/>
<stop offset="0.3844" stop-color="#52A9D4"/>
<stop offset="0.4359" stop-color="#41A0CF"/>
<stop offset="0.4911" stop-color="#369BCD"/>
<stop offset="0.5562" stop-color="#3399CC"/>
<stop offset="0.606" stop-color="#3396C8"/>
<stop offset="0.6553" stop-color="#328EBC"/>
<stop offset="0.7045" stop-color="#3180A8"/>
<stop offset="0.7536" stop-color="#2F6D8C"/>
<stop offset="0.8027" stop-color="#2D5468"/>
<stop offset="0.8512" stop-color="#2A373D"/>
<stop offset="0.8708" stop-color="#292929"/>
</radialGradient>
<radialGradient id="paint10_radial_8_54060" cx="0" cy="0" r="1" gradientUnits="userSpaceOnUse" gradientTransform="translate(14.6921 17.576) scale(37.0966 37.0966)">
<stop stop-color="#E6E6E6"/>
<stop offset="0.1045" stop-color="#D6D6D6"/>
<stop offset="0.3074" stop-color="#ADADAD"/>
<stop offset="0.5884" stop-color="#6C6C6C"/>
<stop offset="0.9335" stop-color="#121212"/>
<stop offset="1"/>
</radialGradient>
<linearGradient id="paint11_linear_8_54060" x1="36.2661" y1="8.31323" x2="72.4425" y2="43.2716" gradientUnits="userSpaceOnUse">
<stop stop-color="#F0F4FF"/>
<stop offset="0.1086" stop-color="#EBEFF9"/>
<stop offset="0.2475" stop-color="#DCE0EA"/>
<stop offset="0.4028" stop-color="#C4C7CF"/>
<stop offset="0.5701" stop-color="#A2A4AB"/>
<stop offset="0.7469" stop-color="#76777C"/>
<stop offset="0.9291" stop-color="#414243"/>
<stop offset="1" stop-color="#2B2B2B"/>
</linearGradient>
<linearGradient id="paint12_linear_8_54060" x1="6.90261" y1="37.8287" x2="43.0797" y2="72.7877" gradientUnits="userSpaceOnUse">
<stop stop-color="#F0F4FF"/>
<stop offset="0.1086" stop-color="#EBEFF9"/>
<stop offset="0.2475" stop-color="#DCE0EA"/>
<stop offset="0.4028" stop-color="#C4C7CF"/>
<stop offset="0.5701" stop-color="#A2A4AB"/>
<stop offset="0.7469" stop-color="#76777C"/>
<stop offset="0.9291" stop-color="#414243"/>
<stop offset="1" stop-color="#2B2B2B"/>
</linearGradient>
<linearGradient id="paint13_linear_8_54060" x1="24.4027" y1="25.3621" x2="43.1619" y2="43.4897" gradientUnits="userSpaceOnUse">
<stop stop-color="#C2D7E8"/>
<stop offset="0.1337" stop-color="#BACFE1"/>
<stop offset="0.3425" stop-color="#A4BACD"/>
<stop offset="0.6001" stop-color="#8098AC"/>
<stop offset="0.894" stop-color="#4E697F"/>
<stop offset="1" stop-color="#3A566D"/>
</linearGradient>
<linearGradient id="paint14_linear_8_54060" x1="15.0093" y1="29.8043" x2="50.8222" y2="64.4115" gradientUnits="userSpaceOnUse">
<stop stop-color="#F0F4FF"/>
<stop offset="0.0973" stop-color="#E8EBF6"/>
<stop offset="0.2568" stop-color="#D1D4DD"/>
<stop offset="0.4587" stop-color="#ABAEB5"/>
<stop offset="0.6951" stop-color="#78797D"/>
<stop offset="0.9578" stop-color="#363637"/>
<stop offset="1" stop-color="#2B2B2B"/>
</linearGradient>
<linearGradient id="paint15_linear_8_54060" x1="41.4045" y1="42.6416" x2="53.9667" y2="54.7809" gradientUnits="userSpaceOnUse">
<stop stop-color="#D9DEF0"/>
<stop offset="0.1229" stop-color="#D4DAEC"/>
<stop offset="0.2629" stop-color="#C7CFE2"/>
<stop offset="0.4114" stop-color="#B0BCD1"/>
<stop offset="0.5657" stop-color="#90A1B8"/>
<stop offset="0.7246" stop-color="#677F99"/>
<stop offset="0.8849" stop-color="#355674"/>
<stop offset="0.9719" stop-color="#173D5D"/>
</linearGradient>
<linearGradient id="paint16_linear_8_54060" x1="28.5537" y1="16.6706" x2="64.3279" y2="51.2402" gradientUnits="userSpaceOnUse">
<stop stop-color="#F0F4FF"/>
<stop offset="0.1086" stop-color="#EBEFF9"/>
<stop offset="0.2475" stop-color="#DCE0EA"/>
<stop offset="0.4028" stop-color="#C4C7CF"/>
<stop offset="0.5701" stop-color="#A2A4AB"/>
<stop offset="0.7469" stop-color="#76777C"/>
<stop offset="0.9291" stop-color="#414243"/>
<stop offset="1" stop-color="#2B2B2B"/>
</linearGradient>
<clipPath id="clip0_8_54060">
<rect width="82.2526" height="82.2526" fill="white" transform="translate(0 0.817383)"/>
</clipPath>
</defs>
</svg>
