<svg xmlns="http://www.w3.org/2000/svg" width="83" height="84" fill="none" viewBox="0 0 83 84"><path fill="#4D4D4D" fill-rule="evenodd" d="M59.5463 7.41661C71.986 13.9588 80.4837 27.002 80.4837 42.0367C80.4837 57.0715 71.986 70.1558 59.5463 76.6579V72.1875C64.3036 69.3415 68.3278 65.3595 71.256 60.6464L59.5463 55.8932V48.6601L72.3931 58.697C75.0766 53.7392 76.5808 48.0905 76.5808 42.0357C76.5808 29.2763 69.7497 18.0622 59.5463 11.885V7.41661ZM41.4549 2.9873C47.96 2.9873 54.0981 4.57272 59.5463 7.41661V11.887C54.5453 8.87865 48.691 7.09171 42.5118 6.88814L46.9833 38.868L59.5463 48.6612V55.8942L41.3726 48.5388L23.3213 55.9343V48.7414L35.9655 38.8669L40.3969 6.88711C34.1354 7.09068 28.3222 8.87865 23.3213 11.885V7.41661C28.7294 4.57272 34.9086 2.9873 41.4549 2.9873ZM59.5463 76.6579C54.0981 79.5018 47.959 81.1263 41.4549 81.1263C34.9096 81.1263 28.7304 79.5018 23.3223 76.698V72.1875C28.608 75.3963 34.8274 77.2254 41.4549 77.2254C48.0412 77.2254 54.2215 75.3963 59.5463 72.1875V76.6579ZM23.3223 76.698C10.8404 70.1558 2.34375 57.0715 2.34375 42.0367C2.34375 27.002 10.8404 13.9588 23.3223 7.41661V11.887C13.0767 18.0632 6.24664 29.2372 6.24664 42.0367C6.24664 48.0905 7.79196 53.8215 10.4754 58.7782L23.3223 48.7414V55.9343L11.6537 60.7276C14.5809 65.4026 18.565 69.3425 23.3223 72.1875V76.698Z" clip-rule="evenodd"/></svg>