<svg xmlns="http://www.w3.org/2000/svg" width="83" height="69" fill="none" viewBox="0 0 83 69"><g clip-path="url(#clip0_8_54123)"><path fill="#000" d="M48.6288 37.2321C48.5635 37.2484 48.3024 37.2484 48.1881 37.2484H39.767V39.2068H48.335C48.4003 39.2068 48.9062 39.2068 49.0041 39.1905C50.7504 39.0273 51.55 37.5748 51.55 36.3019C51.55 34.9963 50.7177 33.5927 49.1347 33.4459C48.8246 33.4132 48.5635 33.4132 48.4492 33.4132H42.8515C42.6067 33.4132 42.3292 33.3969 42.2313 33.3643C41.7907 33.25 41.6275 32.8583 41.6275 32.5319C41.6275 32.2382 41.7907 31.8465 42.2476 31.7159C42.3782 31.6833 42.5251 31.667 42.8351 31.667H50.9136V29.7412H42.7046C42.3619 29.7412 42.1007 29.7575 41.8886 29.7902C40.4851 29.986 39.5059 31.1121 39.5059 32.5483C39.5059 33.7233 40.2403 35.0942 41.8559 35.3227C42.1497 35.3553 42.5577 35.3553 42.7372 35.3553H48.1881C48.286 35.3553 48.5308 35.3553 48.5798 35.3716C49.2 35.4532 49.4121 35.9102 49.4121 36.3182C49.4121 36.7099 49.1673 37.1342 48.6288 37.2321Z"/><path fill="#000" d="M32.6678 37.2321C32.6025 37.2484 32.3414 37.2484 32.2435 37.2484H23.806V39.2068H32.3741C32.4393 39.2068 32.9453 39.2068 33.0432 39.1905C34.7894 39.0273 35.5891 37.5748 35.5891 36.3019C35.5891 34.9963 34.7568 33.5927 33.1737 33.4459C32.8637 33.4132 32.6025 33.4132 32.4883 33.4132H26.8905C26.6457 33.4132 26.3683 33.3969 26.2704 33.3643C25.8297 33.25 25.6665 32.8583 25.6665 32.5319C25.6665 32.2382 25.8297 31.8465 26.2867 31.7159C26.4172 31.6833 26.5641 31.667 26.8742 31.667H34.9526V29.7412H26.7436C26.4009 29.7412 26.1398 29.7575 25.9276 29.7902C24.5241 29.986 23.5449 31.1121 23.5449 32.5483C23.5449 33.7233 24.2793 35.0942 25.895 35.3227C26.1888 35.3553 26.5968 35.3553 26.7763 35.3553H32.2272C32.3251 35.3553 32.5699 35.3553 32.6189 35.3716C33.239 35.4532 33.4512 35.9102 33.4512 36.3182C33.4512 36.7099 33.2227 37.1342 32.6678 37.2321Z"/><path fill="#000" d="M19.4165 29.6758H17.2949V39.2556H19.4165V29.6758Z"/><path fill="#000" d="M12.6109 39.2556V29.6758H10.4893V36.824L3.42271 29.6758H0.697266V39.2556H2.81887V32.0748L9.9344 39.2556H12.6109Z"/><path fill="#000" d="M80.8467 29.6758V36.824L73.7801 29.6758H71.0547V39.2556H73.1763V32.0748L80.2755 39.2556H82.952V29.6758H80.8467Z"/><path fill="#000" d="M60.0044 29.6758L54.0312 39.2556H56.6098L57.6706 37.542H64.6393L65.7001 39.2556H68.2623L62.2892 29.6758H60.0044ZM63.5458 35.7305H58.7641L61.1631 31.879L63.5458 35.7305Z"/><path fill="#000" d="M12.4973 24.2412C16.7731 11.7564 28.5562 3.36793 41.8407 3.36793C55.1252 3.36793 66.9246 11.7564 71.1841 24.2412L71.2168 24.3392H80.5681V23.2131L76.684 22.7561C74.2849 22.4787 73.779 21.4179 73.1262 20.0796L72.963 19.7532C67.3489 7.80698 55.1252 0.0712891 41.8407 0.0712891C28.5399 0.0712891 16.3325 7.80698 10.7184 19.7859L10.5552 20.1123C9.90241 21.4505 9.39649 22.5113 6.99745 22.7888L3.11328 23.2457V24.3718H12.4483L12.4973 24.2412Z"/><path fill="#000" d="M71.2161 44.6091L71.1834 44.707C66.9076 57.1918 55.1245 65.564 41.84 65.564C28.5555 65.564 16.7561 57.1755 12.4966 44.6907L12.464 44.5928H3.12891V45.7189L7.01307 46.1758C9.41212 46.4533 9.91804 47.5141 10.5708 48.8523L10.734 49.1787C16.3481 61.1576 28.5718 68.8933 41.8563 68.8933C55.1408 68.8933 67.3645 61.1576 72.9786 49.195L73.1418 48.8686C73.7946 47.5304 74.3005 46.4696 76.6996 46.1921L80.5837 45.7352V44.6091H71.2161Z"/></g><defs><clipPath id="clip0_8_54123"><rect width="82.253" height="68.822" fill="#fff" transform="translate(0.697266 0.0712891)"/></clipPath></defs></svg>