<svg xmlns="http://www.w3.org/2000/svg" width="83" height="56" fill="none" viewBox="0 0 83 56"><g clip-path="url(#clip0_8_54106)"><path fill="#E20A17" d="M59.4568 25.5408C59.4568 25.5408 56.0672 26.5203 49.5105 30.5494C43.6325 34.1677 41.3275 36.5986 41.3275 36.5986L23.1934 24.0661C23.1934 24.0661 30.8224 18.4559 37.1969 22.7528L45.748 28.6186L46.791 27.9326L23.197 11.4028C23.197 11.4028 26.5879 10.4221 33.1409 6.39539C39.0225 2.77589 41.3275 0.343739 41.3275 0.343739L59.4605 12.8762C59.4605 12.8762 51.8326 18.4865 45.4569 14.1895L36.9059 8.32253L35.8628 9.0073L59.4568 25.5408Z"/><path fill="#039" d="M45.4135 42.637H31.6117V45.7062H38.2785L31.377 52.1491V54.7207H45.3878V51.6392H38.4166L45.4135 45.2122V42.637Z"/><path fill="#039" d="M23.4855 55.0303C29.0053 55.0303 30.4188 53.6204 30.4188 50.512V42.6372H26.0461V50.0412C26.0461 51.2848 24.9822 52.0258 23.4855 52.0258C21.9289 52.0258 20.9274 51.2812 20.9274 50.0217V42.6372H16.5547V50.512C16.5547 53.6204 17.9682 55.0303 23.4855 55.0303Z"/><path fill="#039" d="M53.4274 55.0303C58.9472 55.0303 60.3607 53.6204 60.3607 50.512V42.6372H55.9868V50.0412C55.9868 51.2848 54.9217 52.0258 53.4274 52.0258C51.8708 52.0258 50.8657 51.2812 50.8657 50.0217V42.6372H46.4941V50.512C46.4941 53.6204 47.9077 55.0303 53.4274 55.0303Z"/><path fill="#039" d="M82.1887 42.6377H77.6289V54.7214H82.1887V42.6377Z"/><path fill="#039" d="M76.9342 42.637H70.9351L66.0806 46.8067V42.637H61.5195V54.7207H66.0806V50.4348L70.5891 54.7207H76.7153L70.0474 48.5211L76.9342 42.637Z"/><path fill="#039" d="M5.77599 45.9757C5.77599 45.0415 7.1602 45.0109 7.62731 45.0109C8.09565 45.0109 9.15093 45.198 9.86871 46.3756H15.0253C15.0253 44.0987 12.867 42.2877 7.64321 42.2877C1.84101 42.2877 0.852984 44.8336 0.852984 46.2961C0.852984 48.9924 2.94153 49.7823 7.48302 50.2665C7.87187 50.3069 10.2343 50.1956 10.2343 51.3316C10.2343 52.1729 8.90637 52.2291 8.41724 52.2291C7.93179 52.2291 7.02325 52.1496 6.27245 50.8131H0.59375C0.59375 53.4666 2.38271 55 8.40868 55C13.959 55 15.4325 52.7341 15.4325 51.0112C15.4325 49.3384 14.2843 47.6363 9.55201 47.031C7.5784 46.7754 5.77599 46.6678 5.77599 45.9757Z"/></g><defs><clipPath id="clip0_8_54106"><rect width="82.253" height="55.344" fill="#fff" transform="translate(0.263672 0.0146484)"/></clipPath></defs></svg>