<svg xmlns="http://www.w3.org/2000/svg" width="84" height="54" fill="none" viewBox="0 0 84 54"><g clip-path="url(#clip0_8_54121)"><path fill="#282830" d="M41.9512 0.77832C19.4495 0.77832 1.20508 12.5807 1.20508 27.1356C1.20508 41.6958 19.4495 53.5035 41.9512 53.5035C64.4528 53.5035 82.6973 41.7011 82.6973 27.1356C82.6973 12.57 64.4528 0.77832 41.9512 0.77832ZM41.9512 42.1884C38.6043 42.1884 35.8733 35.5965 35.7019 27.3016C37.7154 27.4783 39.8092 27.5747 41.9512 27.5747C44.0932 27.5747 46.187 27.4783 48.2005 27.3016C48.0291 35.5911 45.298 42.1884 41.9512 42.1884ZM36.1142 20.7149C37.0246 14.8512 39.2951 10.6904 41.9512 10.6904C44.6073 10.6904 46.8778 14.8512 47.7881 20.7149C45.9192 20.8809 43.97 20.972 41.9512 20.972C39.9324 20.972 37.9831 20.8809 36.1142 20.7149ZM41.9512 4.59107C37.5815 4.59107 33.8544 11.1349 32.4782 20.2705C24.194 18.9799 18.4107 16.0347 18.4107 12.6128C18.4107 7.99684 28.9493 4.25371 41.9512 4.25371C54.9531 4.25371 65.4917 7.99684 65.4917 12.6128C65.4917 16.0347 59.7083 18.9799 51.4242 20.2705C50.0479 11.1349 46.3209 4.59107 41.9512 4.59107ZM7.04737 26.1503C7.04737 21.6842 8.76632 17.4912 11.7598 13.8927C11.7276 14.1444 11.7062 14.4014 11.7062 14.6584C11.7062 20.2865 20.1457 25.0846 31.9213 26.8518C31.9106 27.2587 31.9106 27.6711 31.9106 28.0834C31.9106 38.5738 34.8505 47.4577 38.9149 50.4726C21.056 49.3963 7.04737 38.9165 7.04737 26.1503ZM44.9875 50.4726C49.0519 47.4577 51.9918 38.5738 51.9918 28.0834C51.9918 27.6657 51.9864 27.2587 51.9811 26.8518C63.7513 25.0846 72.1962 20.2919 72.1962 14.6584C72.1962 14.4014 72.1747 14.1444 72.1426 13.8927C75.136 17.5019 76.855 21.6842 76.855 26.1503C76.855 38.9165 62.8463 49.3963 44.9875 50.4726Z"/></g><defs><clipPath id="clip0_8_54121"><rect width="82.253" height="53.464" fill="#fff" transform="translate(0.826172 0.40918)"/></clipPath></defs></svg>