<svg width="83" height="84" viewBox="0 0 83 84" fill="none" xmlns="http://www.w3.org/2000/svg">
<path d="M41.5476 17.2236C48.4592 17.2236 54.6031 20.0394 59.0835 24.5194C63.692 28.9995 66.3793 35.271 66.3793 42.1838C66.3793 48.9673 63.692 55.2392 59.0835 59.7193C54.6035 64.1993 48.4592 67.0154 41.5476 67.0154C34.6353 67.0154 28.4914 64.1997 23.8837 59.7193C19.4037 55.2392 16.5879 48.9677 16.5879 42.1838C16.5879 35.2714 19.4037 28.9999 23.8837 24.5194C28.4914 20.0394 34.6353 17.2236 41.5476 17.2236ZM41.5476 17.6071C34.7638 17.6071 28.6199 20.4229 24.2672 24.7756C19.7871 29.2552 16.9713 35.3995 16.9713 42.1834C16.9713 48.9669 19.7871 55.1111 24.2672 59.4627C28.6195 63.9427 34.7638 66.6312 41.5476 66.6312C48.3311 66.6312 54.4758 63.9431 58.827 59.4627C63.307 55.1111 65.9955 48.9669 65.9955 42.1834C65.9955 35.3995 63.307 29.2552 58.827 24.7756C54.4758 20.4233 48.3311 17.6071 41.5476 17.6071Z" fill="#C5C5C1"/>
<path d="M41.548 4.04004C50.2519 4.04004 58.3166 6.98351 64.7154 11.8482L68.9389 7.62429L76.3636 15.0478L72.1397 19.4001C76.8759 25.8006 79.5632 33.6075 79.5632 42.0556C79.5632 63.0477 62.5397 80.1997 41.5476 80.1997C20.5556 80.1997 3.53125 63.0477 3.53125 42.0556C3.53164 21.0644 20.556 4.04004 41.548 4.04004ZM41.548 13.0001C25.5479 13.0001 12.4917 26.0555 12.4917 42.0556C12.4917 58.1842 25.5479 71.112 41.548 71.112C57.5481 71.112 70.6036 58.1842 70.6036 42.0556C70.6036 26.0555 57.5481 13.0001 41.548 13.0001Z" fill="url(#paint0_radial_8_54084)"/>
<path d="M41.5465 12.8711C49.6107 12.8711 56.9066 16.0715 62.2823 21.4473C67.5297 26.6954 70.8582 33.9912 70.8582 42.1832C70.8582 50.2475 67.5301 57.5425 62.2823 62.9191C56.9062 68.1664 49.6104 71.4949 41.5465 71.4949C33.4822 71.4949 26.0587 68.1668 20.8106 62.9191C15.5625 57.5421 12.2344 50.2471 12.2344 42.1832C12.2344 33.9912 15.5625 26.6954 20.8106 21.4473C26.0587 16.0715 33.4822 12.8711 41.5465 12.8711ZM41.5465 13.2557C33.6107 13.2557 26.3145 16.4553 21.0663 21.7035C15.8182 26.9508 12.6182 34.1193 12.6182 42.1836C12.6182 50.1194 15.8178 57.4152 21.0663 62.6633C26.3145 67.7829 33.6107 71.111 41.5465 71.111C49.4823 71.111 56.7781 67.7829 62.0266 62.6633C67.2735 57.4152 70.4743 50.1194 70.4743 42.1836C70.4743 34.1193 67.2735 26.9508 62.0266 21.7035C56.7781 16.4553 49.4823 13.2557 41.5465 13.2557Z" fill="url(#paint1_linear_8_54084)"/>
<path d="M41.5475 3.78418C50.2514 3.78418 58.4434 6.72804 64.8438 11.72L64.7154 11.8485C58.3161 6.98381 50.2514 4.04034 41.5479 4.04034C20.5559 4.04034 3.53155 21.0647 3.53155 42.0559C3.53155 63.048 20.5559 80.2 41.5479 80.2C62.54 80.2 79.5635 63.048 79.5635 42.0559C79.5635 33.6082 76.8762 25.8009 72.14 19.4004L72.2677 19.272C77.0039 25.6724 79.8197 33.4801 79.8197 42.0559C79.8197 52.6798 75.4681 62.2799 68.5558 69.1918C61.6434 76.1042 52.1718 80.3285 41.5479 80.3285C31.0513 80.3285 21.4517 76.1046 14.5401 69.1918C7.62773 62.1518 3.27539 52.6798 3.27539 42.0559C3.27539 31.5601 7.62773 21.9604 14.5401 15.0481C21.4513 8.13573 30.9232 3.78418 41.5475 3.78418Z" fill="url(#paint2_radial_8_54084)"/>
<path d="M41.5466 13.1279C57.5466 13.1279 70.6021 26.0561 70.6021 42.1846C70.6021 58.1847 57.5466 71.2402 41.5466 71.2402C25.5465 71.2402 12.4902 58.1847 12.4902 42.1846C12.4902 26.0557 25.5465 13.1279 41.5466 13.1279ZM41.5466 17.2245C27.8503 17.2245 16.7141 28.3607 16.7141 42.1846C16.7141 55.8809 27.8503 67.0159 41.5466 67.0159C55.2428 67.0159 66.3778 55.8805 66.3778 42.1846C66.3778 28.3603 55.2428 17.2245 41.5466 17.2245Z" fill="url(#paint3_radial_8_54084)"/>
<path opacity="0.67" d="M17.9663 49.9316H4.35547C4.69114 51.5309 5.15645 53.0792 5.68679 54.5985H20.0696C19.2173 53.1293 18.5064 51.5708 17.9663 49.9316Z" fill="url(#paint4_linear_8_54084)"/>
<path opacity="0.86" d="M65.1443 49.9316H78.7556C78.4195 51.5309 77.9542 53.0792 77.4239 54.5985H63.041C63.8937 53.1293 64.6046 51.5708 65.1443 49.9316Z" fill="url(#paint5_linear_8_54084)"/>
<path d="M79.4333 32.4561C80.329 35.5284 80.7129 38.728 80.7129 42.0561C80.7129 45.5127 80.2014 48.8408 79.4333 52.0404H3.78516V51.9119H79.3052C80.2018 48.7123 80.5856 45.3842 80.5856 41.9284C80.5852 38.6003 80.2014 35.4007 79.4333 32.4561Z" fill="#1A171B"/>
<path d="M3.65735 32.3281H79.4336C80.2016 35.4001 80.5851 38.5997 80.5851 41.9278C80.5851 45.3836 80.2016 48.7117 79.3047 51.9113H3.78504C2.88888 48.7117 2.37695 45.3836 2.37695 41.9278C2.37695 38.5997 2.88888 35.4001 3.65735 32.3281Z" fill="url(#paint6_radial_8_54084)"/>
<path d="M70.4746 5.06445L78.9228 13.5126L72.6508 19.7841L73.0347 20.2961L68.5546 23.8807L67.1461 24.3926L76.3628 15.048L68.9381 7.62447L59.7227 16.8407L60.1069 15.5603L70.4746 5.06445Z" fill="url(#paint7_linear_8_54084)"/>
<path d="M62.0273 4.16797C69.4508 8.13607 75.467 14.2799 79.5628 21.5758V4.16797H62.0273Z" fill="url(#paint8_radial_8_54084)"/>
<path d="M62.0273 4.16797C69.4508 8.13607 75.467 14.2799 79.5628 21.5758" stroke="#B1B0A8" stroke-width="0.3402" stroke-linecap="round"/>
<path d="M62.0273 4.16797C69.3232 8.13607 75.467 14.2799 79.4351 21.5758" stroke="#CBCAC4" stroke-width="0.2361" stroke-linecap="round"/>
<path d="M61.8984 4.16797C69.3227 8.13607 75.3381 14.2799 79.4347 21.7042" stroke="#E6E6E1" stroke-width="0.1324" stroke-linecap="round"/>
<path d="M61.8984 4.16797C69.1942 8.26454 75.3381 14.2799 79.3062 21.7042" stroke="white" stroke-width="0.0283" stroke-linecap="round"/>
<path d="M79.5612 3.78418C79.6896 3.78418 79.8173 3.91187 79.8173 4.16763H62.0257H61.7695C61.7695 3.91187 61.8972 3.78418 62.0257 3.78418H79.5612Z" fill="url(#paint9_linear_8_54084)"/>
<path d="M79.819 21.5758C79.819 21.832 79.6913 21.9604 79.5628 21.9604L79.4355 21.7043V3.78418C79.4355 3.78418 79.4356 3.78418 79.5628 3.78418C79.6913 3.78418 79.819 3.91187 79.819 4.16763V21.5758Z" fill="url(#paint10_linear_8_54084)"/>
<path d="M3.79602 32.4756C3.02794 35.5479 2.51562 38.7475 2.51562 42.0756C2.51562 42.351 2.61041 43.9819 2.61707 44.2553L2.83915 46.7276C2.83563 46.5279 2.73849 42.4983 2.73849 42.2977C2.73849 38.9696 3.29311 35.8828 4.06119 32.8105L30.8763 32.6977L42.4501 32.4756H3.79602Z" fill="url(#paint11_linear_8_54084)"/>
<path d="M68.9382 46.8032C65.5447 46.8032 62.7833 44.7308 62.7833 42.1837C62.7833 39.6359 65.5447 37.5635 68.9382 37.5635C72.4038 37.5635 75.2231 39.6362 75.2231 42.1837C75.2227 44.7308 72.4034 46.8032 68.9382 46.8032ZM68.9382 38.8674C67.6848 38.8674 66.7753 40.2621 66.7753 42.1837C66.7753 44.0011 67.7052 45.3716 68.9382 45.3716C70.1116 45.3716 71.1026 43.9118 71.1026 42.1837C71.1026 40.355 70.1316 38.8674 68.9382 38.8674ZM30.0268 46.8032C26.6325 46.8032 23.8712 44.7308 23.8712 42.1837C23.8712 39.7487 26.6901 37.6919 30.0268 37.6919C33.4916 37.6919 36.3101 39.7071 36.3101 42.1837C36.3101 44.7308 33.4916 46.8032 30.0268 46.8032ZM30.0268 38.9947C28.793 38.9947 27.8624 40.3656 27.8624 42.1837C27.8624 44.0011 28.793 45.3716 30.0268 45.3716C31.2003 45.3716 32.1912 43.9118 32.1912 42.1837C32.1916 40.4552 31.2003 38.9947 30.0268 38.9947ZM52.8108 46.547L48.8329 39.1173L46.7954 39.1235L46.7836 37.9602L55.4997 37.9485L55.5114 39.1118L53.3231 39.1235L56.4056 44.354L59.0726 39.1067L57.547 39.1235L57.5352 37.9602L63.5628 37.9485L63.5745 39.1118L61.5147 39.1235L57.554 46.5474H52.8108V46.547ZM36.8107 46.547L36.7989 45.1272L38.8584 45.1154L38.8466 39.1118L36.8107 39.1235L36.7989 37.9602L44.875 37.9485L44.8867 39.1118L42.8261 39.1235L42.8379 45.1276L45.0023 45.1158C45.7022 45.1158 47.5474 44.658 47.6786 42.5672L48.97 42.5562L48.9817 46.5474H36.8107V46.547ZM13.8986 46.547L9.92036 39.1173L7.88284 39.1235L7.87109 37.9602L16.5867 37.9485L16.5985 39.1118L14.4106 39.1235L17.4927 44.354L20.2881 39.1063L18.6344 39.1235L18.6227 37.9602L24.651 37.9485L24.6628 39.1118L22.6025 39.1235L18.6419 46.5474H13.8986V46.547Z" fill="white"/>
<path d="M68.9382 37.5756C72.3952 37.5756 75.2113 39.6241 75.2113 42.1845C75.2113 44.7442 72.3956 46.7923 68.9382 46.7923C65.6113 46.7923 62.7951 44.7442 62.7951 42.1845C62.7951 39.6241 65.6109 37.5756 68.9382 37.5756ZM68.9382 45.3838C70.0901 45.3838 71.1148 43.9757 71.1148 42.1841C71.1148 40.2641 70.0905 38.8561 68.9382 38.8561C67.659 38.8561 66.7632 40.2641 66.7632 42.1841C66.7632 43.9757 67.659 45.3838 68.9382 45.3838ZM30.0268 37.7041C33.4826 37.7041 36.2984 39.7522 36.2984 42.1841C36.2984 44.7438 33.4826 46.7919 30.0268 46.7919C26.6987 46.7919 23.8826 44.7438 23.8826 42.1841C23.883 39.7518 26.6987 37.7041 30.0268 37.7041ZM30.0268 45.3838C31.1788 45.3838 32.203 43.9757 32.203 42.1841C32.203 40.3926 31.1788 38.9833 30.0268 38.9833C28.7464 38.9833 27.8507 40.3926 27.8507 42.1841C27.8507 43.9757 28.7464 45.3838 30.0268 45.3838ZM63.5624 37.9603V39.1118H61.5143L57.5466 46.5353H52.8104L48.8427 39.1118H46.795V37.9603H55.4993V39.1118H53.3227L56.3951 44.3599L59.0824 39.1118H57.5466V37.9603H63.5624ZM44.875 37.9603V39.1118H42.8265V45.1272C42.8265 45.1272 44.2346 45.1272 45.0031 45.1272C45.7712 45.1272 47.5627 44.6161 47.6912 42.5676C48.7146 42.5676 48.9708 42.5676 48.9708 42.5676V46.5353H38.8584H36.8107V45.1272H38.8584V39.1118H36.8107V37.9603H44.875ZM24.651 37.9603V39.1118H22.6026L18.6349 46.5353H13.8987L9.93097 39.1118H7.88288V37.9603H16.5872V39.1118H14.411L17.4829 44.3599L20.2987 39.1118H18.6345V37.9603H24.651ZM68.9382 37.5518C65.538 37.5518 62.772 39.63 62.772 42.1841C62.772 44.7379 65.5384 46.815 68.9382 46.815C72.4101 46.815 75.2345 44.7375 75.2345 42.1841C75.2345 39.63 72.4101 37.5518 68.9382 37.5518ZM68.9382 45.3607C67.7115 45.3607 66.7867 43.9953 66.7867 42.1845C66.7867 40.2696 67.6919 38.8799 68.9382 38.8799C70.1254 38.8799 71.0913 40.3624 71.0913 42.1845C71.0913 43.906 70.105 45.3607 68.9382 45.3607ZM30.0268 37.6806C26.6835 37.6806 23.8591 39.7432 23.8591 42.1845C23.8591 44.7383 26.6259 46.8154 30.0268 46.8154C33.4979 46.8154 36.3219 44.7379 36.3219 42.1845C36.3223 39.7009 33.4983 37.6806 30.0268 37.6806ZM30.0268 45.3607C28.7997 45.3607 27.8742 43.9953 27.8742 42.1845C27.8742 40.373 28.7997 39.0072 30.0268 39.0072C31.1937 39.0072 32.1795 40.4623 32.1795 42.1845C32.1795 43.906 31.1937 45.3607 30.0268 45.3607ZM63.5859 37.9368H63.5624H57.547H57.5235V37.9603V39.1118V39.1353H57.547H59.0444L56.3935 44.311L53.3639 39.1353H55.4993H55.5228V39.1118V37.9603V37.9368H55.4993H46.795H46.7715V37.9603V39.1118V39.1353H46.795H48.8286L52.7897 46.5463L52.7963 46.5584H52.8104H57.5466H57.5607L57.5674 46.5463L61.5284 39.1353H63.562H63.5855V39.1118V37.9603V37.9368H63.5859ZM44.8985 37.9368H44.875H36.8107H36.7872V37.9603V39.1118V39.1353H36.8107H38.8349V45.1041H36.8107H36.7872V45.1276V46.5357V46.5592H36.8107H38.8584H48.9704H48.9939V46.5357V42.568V42.5445H48.9704H47.6908H47.6685L47.6673 42.5664C47.5365 44.6482 45.6995 45.1041 45.0023 45.1041H42.8492V39.1353H44.8746H44.8981V39.1118V37.9603V37.9368H44.8985ZM24.6746 37.9368H24.651H18.6345H18.611V37.9603V39.1118V39.1353H18.6345H20.2592L17.4818 44.3121L14.4517 39.1357H16.5872H16.6107V39.1122V37.9607V37.9372H16.5872H7.88288H7.85938V37.9607V39.1122V39.1357H7.88288H9.91647L13.8779 46.5467L13.8846 46.5588H13.8987H18.6349H18.649L18.6556 46.5467L22.6167 39.1353H24.651H24.6746V39.1118V37.9603V37.9368Z" fill="#1D2D28"/>
<defs>
<radialGradient id="paint0_radial_8_54084" cx="0" cy="0" r="1" gradientUnits="userSpaceOnUse" gradientTransform="translate(14.3663 34.5573) scale(79.4049 79.4049)">
<stop stop-color="white"/>
<stop offset="0.0469" stop-color="#FCFCFB"/>
<stop offset="0.2247" stop-color="#FAFAF9"/>
<stop offset="0.3719" stop-color="#B9B9B8"/>
<stop offset="0.4972" stop-color="#888887"/>
<stop offset="0.5923" stop-color="#6A6A69"/>
<stop offset="0.6461" stop-color="#5F5F5E"/>
<stop offset="0.7275" stop-color="#555554"/>
<stop offset="0.8673" stop-color="#3A3939"/>
<stop offset="1" stop-color="#1B1919"/>
</radialGradient>
<linearGradient id="paint1_linear_8_54084" x1="26.542" y1="37.0042" x2="55.0111" y2="46.8069" gradientUnits="userSpaceOnUse">
<stop stop-color="#E2E2DC"/>
<stop offset="1" stop-color="white"/>
</linearGradient>
<radialGradient id="paint2_radial_8_54084" cx="0" cy="0" r="1" gradientUnits="userSpaceOnUse" gradientTransform="translate(64.1429 66.5581) scale(87.144 87.1439)">
<stop stop-color="#C5C6C2"/>
<stop offset="1" stop-color="#868680"/>
</radialGradient>
<radialGradient id="paint3_radial_8_54084" cx="0" cy="0" r="1" gradientUnits="userSpaceOnUse" gradientTransform="translate(55.2545 55.8923) scale(61.1962 61.1962)">
<stop stop-color="white"/>
<stop offset="0.1986" stop-color="#F2F2F3"/>
<stop offset="0.2978" stop-color="#EAEAEB"/>
<stop offset="0.2992" stop-color="#E9E9EA"/>
<stop offset="0.3715" stop-color="#C3C3C3"/>
<stop offset="0.443" stop-color="#A5A5A5"/>
<stop offset="0.5126" stop-color="#8F8F8F"/>
<stop offset="0.5794" stop-color="#828281"/>
<stop offset="0.6404" stop-color="#7E7E7D"/>
<stop offset="0.7534" stop-color="#545352"/>
<stop offset="0.8551" stop-color="#353333"/>
<stop offset="0.9408" stop-color="#222020"/>
<stop offset="1" stop-color="#1B1919"/>
</radialGradient>
<linearGradient id="paint4_linear_8_54084" x1="12.2125" y1="54.8209" x2="12.2125" y2="52.0804" gradientUnits="userSpaceOnUse">
<stop stop-color="white" stop-opacity="0"/>
<stop offset="0.17" stop-color="#FAFAF9" stop-opacity="0"/>
<stop offset="0.427" stop-color="#BBBBB8" stop-opacity="0.1"/>
<stop offset="0.5232" stop-color="#8F8F8C" stop-opacity="0.2"/>
<stop offset="0.6238" stop-color="#686866" stop-opacity="0.3"/>
<stop offset="0.7234" stop-color="#4A4948" stop-opacity="0.6"/>
<stop offset="0.8206" stop-color="#343432" stop-opacity="0.8"/>
<stop offset="0.9141" stop-color="#272625" stop-opacity="0.9"/>
<stop offset="1" stop-color="#232221"/>
</linearGradient>
<linearGradient id="paint5_linear_8_54084" x1="70.8983" y1="54.8209" x2="70.8983" y2="52.0804" gradientUnits="userSpaceOnUse">
<stop stop-color="white" stop-opacity="0"/>
<stop offset="0.17" stop-color="#FAFAF9" stop-opacity="0"/>
<stop offset="0.427" stop-color="#BBBBB8" stop-opacity="0"/>
<stop offset="0.5232" stop-color="#8F8F8C" stop-opacity="0"/>
<stop offset="0.6238" stop-color="#686866" stop-opacity="0"/>
<stop offset="0.7234" stop-color="#4A4948" stop-opacity="0.25"/>
<stop offset="0.8206" stop-color="#343432" stop-opacity="0.5"/>
<stop offset="0.9141" stop-color="#272625" stop-opacity="0.75"/>
<stop offset="1" stop-color="#232221"/>
</linearGradient>
<radialGradient id="paint6_radial_8_54084" cx="0" cy="0" r="1" gradientUnits="userSpaceOnUse" gradientTransform="translate(5.92196 34.5608) scale(49.4017 49.4017)">
<stop stop-color="#006AB1"/>
<stop offset="0.0016" stop-color="#006AB1"/>
<stop offset="0.1275" stop-color="#0061A4"/>
<stop offset="0.2416" stop-color="#005E9F"/>
<stop offset="0.5062" stop-color="#00548E"/>
<stop offset="0.8371" stop-color="#004374"/>
<stop offset="0.9588" stop-color="#004173"/>
<stop offset="1" stop-color="#003B6F"/>
</radialGradient>
<linearGradient id="paint7_linear_8_54084" x1="78.1734" y1="24.0914" x2="58.9207" y2="4.83873" gradientUnits="userSpaceOnUse">
<stop offset="0.0056" stop-color="#212111"/>
<stop offset="0.6461" stop-color="#41403F"/>
<stop offset="0.6508" stop-color="#454443"/>
<stop offset="0.6558" stop-color="#52514F"/>
<stop offset="0.6608" stop-color="#666564"/>
<stop offset="0.6659" stop-color="#838281"/>
<stop offset="0.6711" stop-color="#A9A8A6"/>
<stop offset="0.6762" stop-color="#D6D5D2"/>
<stop offset="0.68" stop-color="#FDFCF9"/>
<stop offset="0.6826" stop-color="#FAF9F6"/>
<stop offset="0.6842" stop-color="#F2F1EE"/>
<stop offset="0.6856" stop-color="#E3E2DF"/>
<stop offset="0.6869" stop-color="#CECECA"/>
<stop offset="0.688" stop-color="#B3B3AF"/>
<stop offset="0.6891" stop-color="#93938E"/>
<stop offset="0.69" stop-color="#70706B"/>
<stop offset="0.6924" stop-color="#6D6D68"/>
<stop offset="0.7145" stop-color="#535250"/>
<stop offset="0.7396" stop-color="#3E3C3D"/>
<stop offset="0.7692" stop-color="#2E2B2D"/>
<stop offset="0.8059" stop-color="#222023"/>
<stop offset="0.8573" stop-color="#1C191D"/>
<stop offset="1" stop-color="#1A171B"/>
</linearGradient>
<radialGradient id="paint8_radial_8_54084" cx="0" cy="0" r="1" gradientUnits="userSpaceOnUse" gradientTransform="translate(76.5902 6.11567) scale(20.6456 20.6456)">
<stop stop-color="#555552"/>
<stop offset="1" stop-color="#50504D"/>
</radialGradient>
<linearGradient id="paint9_linear_8_54084" x1="61.7695" y1="3.97606" x2="79.8173" y2="3.97606" gradientUnits="userSpaceOnUse">
<stop stop-color="#5D5D5F"/>
<stop offset="0.0852" stop-color="#505051"/>
<stop offset="0.2581" stop-color="#3C3C3C"/>
<stop offset="0.4497" stop-color="#2E2D2D"/>
<stop offset="0.6724" stop-color="#262524"/>
<stop offset="1" stop-color="#232221"/>
</linearGradient>
<linearGradient id="paint10_linear_8_54084" x1="79.627" y1="21.9606" x2="79.627" y2="3.78422" gradientUnits="userSpaceOnUse">
<stop stop-color="#5D5D5F"/>
<stop offset="0.096" stop-color="#555456"/>
<stop offset="0.4584" stop-color="#393939"/>
<stop offset="0.7723" stop-color="#292827"/>
<stop offset="1" stop-color="#232221"/>
</linearGradient>
<linearGradient id="paint11_linear_8_54084" x1="12.842" y1="26.3426" x2="24.3982" y2="41.9729" gradientUnits="userSpaceOnUse">
<stop stop-color="white"/>
<stop offset="0.1091" stop-color="#D8E8F3"/>
<stop offset="0.3376" stop-color="#8CBCDC"/>
<stop offset="0.5419" stop-color="#5099C9"/>
<stop offset="0.7143" stop-color="#257FBC"/>
<stop offset="0.8481" stop-color="#0A70B4"/>
<stop offset="0.927" stop-color="#006AB1"/>
<stop offset="0.9288" stop-color="#046BB2"/>
<stop offset="0.9489" stop-color="#2678B8"/>
<stop offset="0.968" stop-color="#3E81BD"/>
<stop offset="0.9856" stop-color="#4D86C0"/>
<stop offset="1" stop-color="#5288C1"/>
</linearGradient>
</defs>
</svg>
