<svg width="20" height="20" viewBox="0 0 20 20" fill="none" xmlns="http://www.w3.org/2000/svg">
<path d="M9.9987 1.6665C8.24208 1.66642 6.55641 2.35964 5.30807 3.5955C4.05972 4.83136 3.3496 6.50997 3.33203 8.2665C3.33203 12.8332 9.20703 17.9165 9.45703 18.1332C9.60798 18.2623 9.80007 18.3332 9.9987 18.3332C10.1973 18.3332 10.3894 18.2623 10.5404 18.1332C10.832 17.9165 16.6654 12.8332 16.6654 8.2665C16.6478 6.50997 15.9377 4.83136 14.6893 3.5955C13.441 2.35964 11.7553 1.66642 9.9987 1.6665ZM9.9987 16.3748C8.60703 15.0498 4.9987 11.3748 4.9987 8.2665C4.9987 6.94042 5.52548 5.66865 6.46316 4.73097C7.40085 3.79329 8.67262 3.2665 9.9987 3.2665C11.3248 3.2665 12.5965 3.79329 13.5342 4.73097C14.4719 5.66865 14.9987 6.94042 14.9987 8.2665C14.9987 11.3498 11.3904 15.0498 9.9987 16.3748Z" fill="#001133"/>
<path d="M9.9987 5C9.42184 5 8.85793 5.17106 8.37829 5.49155C7.89864 5.81203 7.52481 6.26756 7.30405 6.80051C7.08329 7.33346 7.02554 7.9199 7.13808 8.48568C7.25062 9.05146 7.5284 9.57116 7.9363 9.97906C8.34421 10.387 8.86391 10.6648 9.42969 10.7773C9.99546 10.8898 10.5819 10.8321 11.1149 10.6113C11.6478 10.3906 12.1033 10.0167 12.4238 9.53708C12.7443 9.05744 12.9154 8.49353 12.9154 7.91667C12.9154 7.14312 12.6081 6.40125 12.0611 5.85427C11.5141 5.30729 10.7722 5 9.9987 5ZM9.9987 9.16667C9.75147 9.16667 9.5098 9.09336 9.30424 8.956C9.09868 8.81865 8.93846 8.62343 8.84385 8.39502C8.74924 8.16661 8.72449 7.91528 8.77272 7.6728C8.82095 7.43033 8.94 7.2076 9.11482 7.03278C9.28963 6.85797 9.51236 6.73892 9.75484 6.69068C9.99731 6.64245 10.2486 6.66721 10.4771 6.76182C10.7055 6.85643 10.9007 7.01664 11.038 7.2222C11.1754 7.42777 11.2487 7.66944 11.2487 7.91667C11.2487 8.24819 11.117 8.56613 10.8826 8.80055C10.6482 9.03497 10.3302 9.16667 9.9987 9.16667Z" fill="#001133"/>
</svg>
