<svg xmlns="http://www.w3.org/2000/svg" width="22" height="18" fill="none" viewBox="0 0 22 18"><path stroke="#FA8E1F" stroke-linecap="round" stroke-linejoin="round" d="M14.3887 12.6343L10.7535 8.99902L7.11816 12.6343"/><path stroke="#FA8E1F" stroke-linecap="round" stroke-linejoin="round" d="M10.7539 8.99902V17.1784"/><path stroke="#FA8E1F" stroke-linecap="round" stroke-linejoin="round" d="M18.3789 14.8063C19.2653 14.3231 19.9655 13.5584 20.3691 12.633C20.7726 11.7076 20.8565 10.6741 20.6075 9.69573C20.3585 8.71735 19.7907 7.84975 18.9938 7.22987C18.197 6.61 17.2164 6.27314 16.2068 6.27248H15.0617C14.7866 5.20847 14.2739 4.22066 13.5621 3.38333C12.8503 2.54599 11.9579 1.88091 10.9521 1.4381C9.94622 0.995278 8.85309 0.786244 7.75484 0.826708C6.65658 0.867172 5.5818 1.15608 4.61127 1.67172C3.64075 2.18735 2.79975 2.91629 2.1515 3.80374C1.50324 4.69118 1.06461 5.71404 0.868565 6.79541C0.672523 7.87678 0.724176 8.98852 1.01964 10.0471C1.31511 11.1056 1.8467 12.0834 2.57444 12.9069"/><path stroke="#FA8E1F" stroke-linecap="round" stroke-linejoin="round" d="M14.3887 12.6343L10.7535 8.99902L7.11816 12.6343"/></svg>