<svg width="22" height="22" viewBox="0 0 22 22" fill="none" xmlns="http://www.w3.org/2000/svg">
<path d="M21.7823 11.2532C21.7823 10.5055 21.7217 9.75369 21.5923 9.01807H11.2168V13.254H17.1584C16.9118 14.6201 16.1196 15.8286 14.9596 16.5966V19.3451H18.5043C20.5859 17.4292 21.7823 14.5999 21.7823 11.2532Z" fill="#4285F4"/>
<path d="M11.2166 22.0001C14.1833 22.0001 16.6853 21.026 18.5082 19.3445L14.9634 16.5961C13.9772 17.267 12.704 17.647 11.2206 17.647C8.35089 17.647 5.91768 15.7109 5.04463 13.1079H1.38672V15.9413C3.25407 19.6558 7.05749 22.0001 11.2166 22.0001Z" fill="#34A853"/>
<path d="M5.04079 13.1085C4.58002 11.7423 4.58002 10.263 5.04079 8.89684V6.06348H1.38692C-0.173245 9.17169 -0.173245 12.8336 1.38692 15.9418L5.04079 13.1085Z" fill="#FBBC04"/>
<path d="M11.2166 4.35386C12.7848 4.3296 14.3006 4.91972 15.4363 6.00295L18.5769 2.8624C16.5883 0.995046 13.9489 -0.0315938 11.2166 0.000741277C7.05749 0.000741277 3.25407 2.34504 1.38672 6.06357L5.04059 8.89694C5.90959 6.28992 8.34685 4.35386 11.2166 4.35386Z" fill="#EA4335"/>
</svg>
